HIERARCHY
ROOT Hips
{
	OFFSET -14.64140 90.27770 -84.91600
	CHANNELS 6 Xposition Yposition Zposition Zrotation Xrotation Yrotation
	JOINT Spine
	{
		OFFSET 0.00000 13.20850 -1.60436
		CHANNELS 3 Zrotation Xrotation Yrotation
		JOINT Spine1
		{
			OFFSET 0.00000 8.61716 0.00000
			CHANNELS 3 Zrotation Xrotation Yrotation
			JOINT Spine2
			{
				OFFSET 0.00000 8.61717 0.00000
				CHANNELS 3 Zrotation Xrotation Yrotation
				JOINT Spine3
				{
					OFFSET 0.00000 8.61717 0.00000
					CHANNELS 3 Zrotation Xrotation Yrotation
					JOINT Neck
					{
						OFFSET 0.00000 11.07920 1.10792
						CHANNELS 3 Zrotation Xrotation Yrotation
						JOINT Neck1
						{
							OFFSET 0.00000 7.08032 0.00000
							CHANNELS 3 Zrotation Xrotation Yrotation
							JOINT Head
							{
								OFFSET 0.00000 7.08031 0.00000
								CHANNELS 3 Zrotation Xrotation Yrotation
								End site
								{
									OFFSET 0.00000 0.00000 0.00000
								}
							}
						}
					}
					JOINT RightShoulder
					{
						OFFSET -0.01000 7.91373 5.19711
						CHANNELS 3 Zrotation Xrotation Yrotation
						JOINT RightArm
						{
							OFFSET -18.41580 0.00000 0.00000
							CHANNELS 3 Zrotation Xrotation Yrotation
							JOINT RightForeArm
							{
								OFFSET -29.11090 0.00000 0.00000
								CHANNELS 3 Zrotation Xrotation Yrotation
								JOINT RightHand
								{
									OFFSET -24.65040 0.00000 0.00000
									CHANNELS 3 Zrotation Xrotation Yrotation
									JOINT RightHandThumb1
									{
										OFFSET -5.35114 -0.85590 3.97906
										CHANNELS 3 Zrotation Xrotation Yrotation
										JOINT RightHandThumb2
										{
											OFFSET -4.52789 0.00000 0.00000
											CHANNELS 3 Zrotation Xrotation Yrotation
											JOINT RightHandThumb3
											{
												OFFSET -2.46976 0.00000 0.00000
												CHANNELS 3 Zrotation Xrotation Yrotation
												End site
												{
													OFFSET 0.00000 0.00000 0.00000
												}
											}
										}
									}
									JOINT RightHandIndex1
									{
										OFFSET -14.26970 0.00000 2.88139
										CHANNELS 3 Zrotation Xrotation Yrotation
										JOINT RightHandIndex2
										{
											OFFSET -5.48836 0.00000 0.00000
											CHANNELS 3 Zrotation Xrotation Yrotation
											JOINT RightHandIndex3
											{
												OFFSET -3.01859 0.00000 0.00000
												CHANNELS 3 Zrotation Xrotation Yrotation
												End site
												{
													OFFSET 0.00000 0.00000 0.00000
												}
											}
										}
									}
									JOINT RightHandMiddle1
									{
										OFFSET -14.26970 0.00000 -0.09147
										CHANNELS 3 Zrotation Xrotation Yrotation
										JOINT RightHandMiddle2
										{
											OFFSET -6.17441 0.00000 0.00000
											CHANNELS 3 Zrotation Xrotation Yrotation
											JOINT RightHandMiddle3
											{
												OFFSET -3.56743 0.00000 0.00000
												CHANNELS 3 Zrotation Xrotation Yrotation
												End site
												{
													OFFSET 0.00000 0.00000 0.00000
												}
											}
										}
									}
									JOINT RightHandRing1
									{
										OFFSET -12.69180 0.00000 -3.06433
										CHANNELS 3 Zrotation Xrotation Yrotation
										JOINT RightHandRing2
										{
											OFFSET -5.62556 0.00000 0.00000
											CHANNELS 3 Zrotation Xrotation Yrotation
											JOINT RightHandRing3
											{
												OFFSET -3.56744 0.00000 0.00000
												CHANNELS 3 Zrotation Xrotation Yrotation
												End site
												{
													OFFSET 0.00000 0.00000 0.00000
												}
											}
										}
									}
									JOINT RightHandPinky1
									{
										OFFSET -11.11390 0.00000 -6.03719
										CHANNELS 3 Zrotation Xrotation Yrotation
										JOINT RightHandPinky2
										{
											OFFSET -4.52789 0.00000 0.00000
											CHANNELS 3 Zrotation Xrotation Yrotation
											JOINT RightHandPinky3
											{
												OFFSET -2.46976 0.00000 0.00000
												CHANNELS 3 Zrotation Xrotation Yrotation
												End site
												{
													OFFSET 0.00000 0.00000 0.00000
												}
											}
										}
									}
								}
							}
						}
					}
					JOINT LeftShoulder
					{
						OFFSET 0.01000 7.91373 5.19711
						CHANNELS 3 Zrotation Xrotation Yrotation
						JOINT LeftArm
						{
							OFFSET 18.41580 0.00000 0.00000
							CHANNELS 3 Zrotation Xrotation Yrotation
							JOINT LeftForeArm
							{
								OFFSET 29.11090 0.00000 0.00000
								CHANNELS 3 Zrotation Xrotation Yrotation
								JOINT LeftHand
								{
									OFFSET 24.65040 0.00000 0.00000
									CHANNELS 3 Zrotation Xrotation Yrotation
									JOINT LeftHandThumb1
									{
										OFFSET 5.35114 -0.85590 3.97906
										CHANNELS 3 Zrotation Xrotation Yrotation
										JOINT LeftHandThumb2
										{
											OFFSET 4.52789 0.00000 0.00000
											CHANNELS 3 Zrotation Xrotation Yrotation
											JOINT LeftHandThumb3
											{
												OFFSET 2.46977 0.00000 0.00000
												CHANNELS 3 Zrotation Xrotation Yrotation
												End site
												{
													OFFSET 0.00000 0.00000 0.00000
												}
											}
										}
									}
									JOINT LeftHandIndex1
									{
										OFFSET 14.26970 0.00000 2.88139
										CHANNELS 3 Zrotation Xrotation Yrotation
										JOINT LeftHandIndex2
										{
											OFFSET 5.48836 0.00000 0.00000
											CHANNELS 3 Zrotation Xrotation Yrotation
											JOINT LeftHandIndex3
											{
												OFFSET 3.01859 0.00000 0.00000
												CHANNELS 3 Zrotation Xrotation Yrotation
												End site
												{
													OFFSET 0.00000 0.00000 0.00000
												}
											}
										}
									}
									JOINT LeftHandMiddle1
									{
										OFFSET 14.26970 0.00000 -0.09147
										CHANNELS 3 Zrotation Xrotation Yrotation
										JOINT LeftHandMiddle2
										{
											OFFSET 6.17440 0.00000 0.00000
											CHANNELS 3 Zrotation Xrotation Yrotation
											JOINT LeftHandMiddle3
											{
												OFFSET 3.56744 0.00000 0.00000
												CHANNELS 3 Zrotation Xrotation Yrotation
												End site
												{
													OFFSET 0.00000 0.00000 0.00000
												}
											}
										}
									}
									JOINT LeftHandRing1
									{
										OFFSET 12.69180 0.00000 -3.06433
										CHANNELS 3 Zrotation Xrotation Yrotation
										JOINT LeftHandRing2
										{
											OFFSET 5.62556 0.00000 0.00000
											CHANNELS 3 Zrotation Xrotation Yrotation
											JOINT LeftHandRing3
											{
												OFFSET 3.56744 0.00000 0.00000
												CHANNELS 3 Zrotation Xrotation Yrotation
												End site
												{
													OFFSET 0.00000 0.00000 0.00000
												}
											}
										}
									}
									JOINT LeftHandPinky1
									{
										OFFSET 11.11390 0.00000 -6.03719
										CHANNELS 3 Zrotation Xrotation Yrotation
										JOINT LeftHandPinky2
										{
											OFFSET 4.52789 0.00000 0.00000
											CHANNELS 3 Zrotation Xrotation Yrotation
											JOINT LeftHandPinky3
											{
												OFFSET 2.46976 0.00000 0.00000
												CHANNELS 3 Zrotation Xrotation Yrotation
												End site
												{
													OFFSET 0.00000 0.00000 0.00000
												}
											}
										}
									}
								}
							}
						}
					}
					JOINT pCube4
					{
						OFFSET 0.00000 10.91090 1.10792
						CHANNELS 3 Zrotation Xrotation Yrotation
						End site
						{
							OFFSET 0.00000 0.00000 0.00000
						}
					}
				}
			}
		}
	}
	JOINT RightUpLeg
	{
		OFFSET -9.98441 0.00000 0.00000
		CHANNELS 3 Zrotation Xrotation Yrotation
		JOINT RightLeg
		{
			OFFSET 0.00000 -42.11790 0.00000
			CHANNELS 3 Zrotation Xrotation Yrotation
			JOINT RightFoot
			{
				OFFSET 0.00000 -45.00020 -0.00001
				CHANNELS 3 Zrotation Xrotation Yrotation
				JOINT RightForeFoot
				{
					OFFSET 0.00000 -3.74820 0.00000
					CHANNELS 3 Zrotation Xrotation Yrotation
					JOINT RightToeBase
					{
						OFFSET 0.00000 0.06325 14.43120
						CHANNELS 3 Zrotation Xrotation Yrotation
						End site
						{
							OFFSET 0.00000 0.00000 0.00000
						}
					}
				}
			}
		}
	}
	JOINT LeftUpLeg
	{
		OFFSET 9.98441 0.00000 0.00000
		CHANNELS 3 Zrotation Xrotation Yrotation
		JOINT LeftLeg
		{
			OFFSET 0.00000 -42.11800 0.00000
			CHANNELS 3 Zrotation Xrotation Yrotation
			JOINT LeftFoot
			{
				OFFSET 0.00000 -45.00070 0.00000
				CHANNELS 3 Zrotation Xrotation Yrotation
				JOINT LeftForeFoot
				{
					OFFSET 0.00000 -3.74824 0.00000
					CHANNELS 3 Zrotation Xrotation Yrotation
					JOINT LeftToeBase
					{
						OFFSET 0.00000 0.06325 14.43110
						CHANNELS 3 Zrotation Xrotation Yrotation
						End site
						{
							OFFSET 0.00000 0.00000 0.00000
						}
					}
				}
			}
		}
	}
}
MOTION
Frames: 4
Frame Time: 0.050000
0.044690185200907756 -0.03588695480333885 0.011618086760673212 -0.04366571249278276 -0.014236151150512927 0.031358028315057546 -1.3696824801233718 0.8499393141776578 -1.2439457043608475 -0.17477179307318771 3.809308250381917 0.30427660932285794 -0.5485147572336776 -1.9106923484127658 0.5842421842848577 -1.0617651035751252 -1.2253175282967015 -0.41301724741866797 -0.3972234041044778 12.115270951295992 -0.5578044714193777 0.5963266479945758 -1.4467220735136646 -1.8371362079557592 1.0013195801421089 -17.270370120180914 -0.2453174199516141 0.05867209047454654 0.7142420691723951 -14.763825087068037 74.06403358003766 7.758828029859047 3.9841486711671723 28.29337669995334 16.19764761573897 101.86857798038761 27.727593492095902 -0.20968269470350226 -5.229394453041136 4.556296628732445 -0.1587280711750701 -1.6350697268655892 -0.01328062184658289 -0.04269104201872939 -56.25689413924631 -0.033876161933993995 0.02445240301851276 -56.23666758744732 -38.74647932918908 -0.005673461913830634 0.0002836339072346413 0.009409237740484723 -0.0236048983267667 -0.025275962634095834 -0.00477687688461346 0.03612274948080468 -0.0387033418887523 -36.72383357677767 0.027568070242757745 -0.048314973406495446 -0.0017019093236849362 -0.03788857697820726 -0.046754430309776544 0.030649229268266187 -0.017012786166894216 -0.004107990191241251 -19.71203736096366 -0.020888097881945712 -0.032741203956585724 -0.0009568672694651257 -0.040309824219981465 -0.0328625009790481 -0.002716098197506883 -0.04437582416573567 -0.03345456032684195 24.094313252852196 0.010023671800254904 0.008380376561435638 28.84041891219495 0.01837770139772882 -0.03256722764625026 28.864419525636194 0.02995505554109329 -0.04457036975081893 4.394765987487098 1.4744699032990842 13.89315983028091 -79.34929423303511 13.764401979290952 -10.147802576590186 -62.16815625573284 23.187365780142297 -108.74847917026423 -29.638107867210405 3.7184778822037896 -1.4641168310822015 -0.4999844728096241 0.06505524032713901 -8.110020846631965 0.005783513055993405 -0.012988109192954836 44.53241874256164 -0.002421832061283126 0.01911542185524413 44.567390685643744 12.444849316588117 -0.026725815467069022 -0.03749387697189928 0.007294154864661169 0.011484166858649393 -0.016983971330843544 0.042601095442670184 0.013614831802604201 -0.008123989151212433 11.154340512556145 -0.014007836364137115 0.013522743267870677 -0.02203114836468789 -0.01062548875140462 0.04770320497439856 0.000621832626554396 -0.04384539420304649 -0.026158063478734197 4.750101425084861 -0.005797156830640263 0.020800537176956093 -0.04541181401595086 0.010128432615881922 -0.011192024196305233 -0.014439575806384886 -0.008877778945477225 0.045218135885973613 -5.555886051216393 -0.013502447195202346 -0.010666922089529263 -6.742463102821991 0.003292480665327612 0.008996155065244305 -6.695332720841501 0.028973034928410826 -0.03765719199702038 0.03712359275023037 0.039901223766743 0.029824787366530225 8.093663359259468 3.506289448410555 -19.20298844695694 -0.014042931745300467 10.378005939582968 0.046835633878387156 -5.664343526022325 -15.616620392183135 3.208799867531941 -0.023555975087022493 -0.04466860628300027 -0.04911276448209143 -0.026490873529061647 4.7038868695191 -0.04098919928285968 12.507104092889715 -8.26317396188723 6.889040814580034 -0.03448293006737375 46.39052261802613 -0.02074198055439117 -4.3126889811045155 -14.71750672139611 -3.8291905581579453 -0.006247533463891525 -0.015523090925579063 0.011814657321732676 0.011997964707454078 -10.713788601902557 -0.024542873817805205 
-0.023029558667035016 -0.02745239311352195 -0.020877499052804033 0.023908099442200542 0.00109476613473668 -0.039490091052566664 -1.4739026469885532 0.9880165369214191 -1.1547590135198071 -0.16363584966671033 3.832992301420471 0.2750606996096805 -0.6010683460082497 -1.8286030448209027 0.5694094674489831 -1.0854720455432538 -1.1789678828142383 -0.45185602702993855 -0.44781098995885726 12.052060903282447 -0.4260989570404242 0.6085228530134319 -1.4952443654101146 -1.4423522361670846 0.8555576406328027 -17.2350178958378 -0.1458994153445683 0.29985040356069925 0.6816110038833938 -14.631361391138094 73.82724010674306 8.22097856623147 3.8067843329997344 25.71885009686889 16.321430452476083 100.28008379206126 27.76282665375075 -0.29396891868461145 -4.904653479093225 4.497585059389385 -0.09250625171123442 -1.5554139217072285 -0.0381665387995973 0.028644418754876833 -56.28380272297255 0.03904904487482732 -0.030139748519396978 -56.20758515931742 -38.756400779639776 -0.03281532125480536 0.018379916997133816 0.006360378834298753 0.04842108570930801 -0.028098503298205197 -0.014421405843284735 0.014714665682603939 -0.03798698699527986 -36.73825201894475 -0.01698026618550792 0.037650189936422 -0.018657168317911973 -0.00655978406823017 -0.03321129015821036 -0.01836234012571138 -0.0010565162647914335 -0.018952587479858993 -19.74488858271678 0.006387810702854122 0.04926840302662839 0.027675236434384465 0.027620345783957473 -0.013881031612770652 0.010962117904694228 -0.013749177253129694 -0.039820423163826175 24.10161412202439 -0.04718855602748162 0.023111241174780927 28.901067060985877 0.022157691860239224 -0.0363770867475514 28.856775525188404 -0.02394140948927258 -0.04538903045352474 4.202745372691195 1.418578269142005 13.785456159743378 -78.78573810535248 14.55634856062409 -10.060972292536336 -57.97747931609514 22.762038396889317 -106.01883187874617 -30.279518181662652 2.9163447949624706 -0.9584018911354031 -0.48584607681354886 0.0689329779408437 -8.156436073277996 0.047461578393149406 -0.029532526708958774 44.54056737515646 -0.0002215858679031856 -0.010390591810150151 44.59098395263863 12.490348075051172 -0.038052325772583856 0.018973069402002087 -0.008015845276576294 -0.02328695875096803 0.04339442406921366 0.028284282520684646 0.024760147683886534 0.009773788989244638 11.062707761868474 -0.04031846059670585 -0.04792682400377125 -0.0364043222395042 -0.036443806441933985 -0.03968809084469328 0.039414594134297244 0.04476808818027903 0.03562452280389917 4.749629628800128 -0.004431660533837622 -0.039495912208226805 0.0222938242249309 0.027092967204639364 -0.019496878988203112 0.04541925513832457 0.01507434981135968 -0.01976354406469728 -5.576242763387105 -0.016441199530373683 0.0008692466767567327 -6.6940760535898205 -0.011079311643409731 0.03377473714505726 -6.675741730871169 0.003946884876157134 -0.024061444015380393 0.033397692652400036 0.012319711773877596 -0.028137273228172922 8.040916449342632 3.5033395634428817 -19.256526961139713 0.016846671559591388 10.436017077019583 -0.02437875420039921 -5.6560153704217155 -15.615155644249871 3.1627729960433406 -0.04249106760095879 0.007885117528082011 -0.031963800684643766 0.026462507600473126 4.694995491432077 0.012051929937636293 12.4963645681435 -8.261226878127093 6.915738667060101 -0.046494663660143536 46.352587125374356 0.01838764005155287 -4.309461657805655 -14.728984169633613 -3.8149555845771634 -0.003498962503169477 0.02229245694122729 0.01072564584637369 0.011653023255946759 -10.722879321528875 0.03677785792357662 
0.009795859134574153 0.01566578724495744 -0.04689177472147643 -0.0019954706305594103 0.04769358713929055 0.01896353460207357 -1.1326952290025203 1.2624438607533612 -1.1906546676673508 -0.2307492693498841 3.7706811063090053 0.29569388199926877 -0.599313763807115 -1.7740150661036935 0.5829249902492826 -1.0934820500815405 -1.1336350638829855 -0.46812448009085705 -0.4808399277910423 11.928952206709775 -0.25056068646075597 0.5821680238015389 -1.4377777802968716 -1.1652195747255722 0.8125582468512258 -17.24343344520863 -0.1133536985379201 0.10959471295924164 0.688048083206867 -14.649289955067397 73.99024320081514 9.35573883943102 3.1418998279394716 22.81727571271313 16.321025452915134 97.32723121902328 27.69890276185212 -0.24531716082572477 -4.855383800144003 4.557770349358615 -0.08641380275861604 -1.638437883320793 0.027859523481604687 -0.013202486729331478 -56.229771686978346 0.008683805117834714 0.04247431857171895 -56.19543368374192 -38.73382125683877 -0.008370417393384276 -0.04859258244468511 0.0026033622015885537 0.028618674004023723 0.01766463261094542 -0.04716550448270708 -0.031397592070894535 -0.021323864074798818 -36.68823147922331 -0.03512502181171015 0.002638512965282311 0.0006786559498556201 0.03385621707823863 0.017369840730708345 0.020024830470823648 0.012000917195184103 -0.039549937035934624 -19.736395778141546 -0.03166983210363397 0.049340045911807434 -0.01403233737779794 -0.0470144903922883 0.04240790784226141 0.02392564274031998 -0.044961422383821635 0.006096794285164774 24.064273276933562 0.002710548698253131 0.021283519944990392 28.900909494185107 0.01095651749745071 -0.0361031637563032 28.871022373254394 0.04057364420070909 0.006955356741179372 4.279971943541133 1.4556655440416535 13.781526279589581 -78.18929717475642 15.919107868257859 -10.116760907663512 -53.600788888120626 21.964681770756123 -102.74209067373403 -30.96022733682585 1.2201038485429252 0.3995315912747669 -0.4865426942651852 0.03464841495855449 -8.112060192899985 -0.010359235377246218 -0.026968619117803756 44.57607014583714 0.031592433840261676 0.04452058626970216 44.566734266361806 12.43744536386662 -0.0016586588587900923 -0.03461411391373952 -0.000840827405511769 0.0041114814459086895 -0.017642701516091267 0.03043637737811028 -0.009800455627503073 0.0009157330728980129 11.095415634605914 -0.04136149434716545 -0.0015871265929244568 0.01957687866062163 -0.0077384613217686285 0.01669009484697084 -0.008143094241906896 -0.04553893825456957 0.039770439186723995 4.747276223062439 0.04615668263649278 -0.041776824165727956 0.013761241801903008 0.03913893094331376 -0.0178482930523849 0.04896939589519003 -0.0255483525978539 0.01699671139863439 -5.612549383228996 -0.013452409473560616 -0.008672118751540506 -6.692320179964314 0.03430551289134822 0.02701347446303391 -6.692868604615762 0.011625080907400661 0.022526860736211275 0.010575235688135258 0.0020743319169984177 -0.044602436024498926 8.034799858879929 3.4639789864321724 -19.19772742112229 0.03442105772128419 10.387062503461069 0.030325681894892296 -5.595011394502552 -15.639939441684048 3.1618256549876502 0.03708079383069962 0.04111979656046299 -0.009282475493023972 -0.04813752518222838 4.714135173298219 -0.03676006702668659 12.502267783441134 -8.209230719975702 6.928836803043998 -0.030735772015585826 46.41175557773949 -0.0086342510590596 -4.34406412464561 -14.728697745620744 -3.873459880357002 -0.026904819146747083 -0.02998107847476741 -0.03798795294325723 0.03996800467198414 -10.737571377959677 -0.03295750996566226 
0.019047436133882753 -0.018310397070414066 -0.018641611286698473 0.022147324944341806 0.016897920619458263 -0.013625971938744798 -0.5987002406423101 1.4478454521917279 -1.3502112955516523 -0.23192776013453337 3.7598071323227202 0.2971325973510399 -0.5635378750639313 -1.7185275443241022 0.5093005688889233 -1.0209564675733598 -1.0788682848380404 -0.4431305777042587 -0.5327633751888731 11.699223495323055 -0.12355524635155724 0.558240540500171 -1.3157320084151518 -0.8898544904419005 0.757946695512505 -17.156688543573523 -0.14254176462946735 -0.49685695066955443 0.9485868918293998 -14.76088551238367 74.5144340048499 10.603648708002547 2.184169763484382 20.752128316749015 15.712174649207157 94.51440084854484 27.036421242795004 -0.33084092809694127 -5.056310613271518 4.531053511555496 -0.11164698494413086 -1.6075686392006532 -0.020600491664525163 0.0128662786830031 -56.2355251048011 -0.04013277728743419 -0.03203546008038542 -56.256177309476605 -38.76168640766761 -0.021243054728574403 -0.016650906992364156 0.01811212712306563 0.025339881822305486 -0.04009329760273694 0.02243648228660366 -0.03929478919241115 -0.013286055686016256 -36.70734213015761 -0.03616412196740403 -0.033956579547702016 -0.016404014596285457 0.007782459545099752 -0.015104803292884833 0.04288653665420104 -0.011772625245609805 -0.009567465547719199 -19.76402548724563 -0.02917813279998135 -0.009926517995648584 -0.008407520583354004 0.04432265577756439 -0.0009256631320960272 0.03811408869700789 0.004472694013743841 0.00976359329565561 24.036452565818806 0.0014487267542567432 0.040606111868444116 28.880530007666042 0.049555444305159235 -0.04346778792341194 28.83753126335921 0.005079742406887807 0.04192861361109662 4.775342574365692 1.555534489116196 13.791299204941735 -77.52264391764346 17.8045499119368 -10.282697655102764 -49.92562718735481 20.294941395090717 -99.94047922284538 -30.878272408563667 -1.2979762306058797 2.503629729601079 -0.428198861568124 0.046260375906357426 -8.076359072469264 0.008900466598873114 -0.0016276997710148577 44.61127060810197 0.007077023827135385 -0.016861747536814676 44.57076977048166 12.483073042239507 0.018919219122160588 -0.04293044117735582 0.008591821643197961 -0.0038676798696618735 0.04051566401202872 -0.02663731409800377 -0.034762181613231434 0.005808301400450358 11.121808134176812 0.03129906174786274 0.0351276958447925 0.02956439383958739 -0.012904091505897056 -0.03887550695727419 -0.026978589020617505 0.04189290208021915 -0.010404463127594897 4.816425267401281 0.00562246832145272 -0.037447590824031166 0.018380989500723383 -0.013918907267081263 0.0006193601424354331 -0.001397912119841469 0.038636144542396535 0.022726159748071087 -5.645658900000605 0.018453868979710165 -0.0035860182409555423 -6.723022891054095 -0.045861026546419444 -0.002744048656298748 -6.7556949445203225 0.005598785173043833 0.019195327466426677 0.04083660325726403 -0.02842021708418761 0.045967961016767256 8.033250678892342 3.5235592715435895 -19.22535752718924 0.048624253095242126 10.434951217025409 0.002874177607440088 -5.661154682214951 -15.638442751917461 3.2109233663802703 0.011451999006504161 0.032114838081158226 -0.010712647177774447 -0.03941136688618399 4.676532683145419 -0.008614257930558871 12.492628406634731 -8.232520114651825 6.922844862104062 -0.00924483034980641 46.33759435682042 -0.028485837213477992 -4.320404939637301 -14.768524180820412 -3.8009011625120768 -0.03397386449188254 0.042749598222066476 -0.019461996621076887 -0.015693964360190805 -10.730663974917771 -0.021855045375137216 
